<svg xmlns="http://www.w3.org/2000/svg" viewBox="0 0 37.5 37.5"><defs><style>.cls-1{fill:#363443;}</style></defs><g id="レイヤー_2" data-name="レイヤー 2"><g id="レイヤー_3" data-name="レイヤー 3"><path class="cls-1" d="M37.18,9.64,27.86.32a1.1,1.1,0,0,0-1.56,0L21.5,5.13a1.09,1.09,0,0,0,0,1.55l.47.48L9.4,13.45a1.09,1.09,0,0,0-.53.57L.08,36h0l0,.08a.65.65,0,0,0,0,.2,1.07,1.07,0,0,0,.22.8l0,0a1.11,1.11,0,0,0,1.06.37l.08,0h0l.11,0,22-8.79a1.07,1.07,0,0,0,.57-.52l6.29-12.58.48.48a1.1,1.1,0,0,0,1.55,0l4.81-4.81A1.1,1.1,0,0,0,37.18,9.64ZM22.28,26.75,5.66,33.4l9.4-9.4a3.36,3.36,0,0,0,1.42.32,3.3,3.3,0,1,0-3.3-3.3,3.22,3.22,0,0,0,.33,1.42l-9.4,9.4,6.64-16.61L23.61,8.8l5.09,5.09ZM15.38,21a1.1,1.1,0,1,1,1.1,1.1A1.1,1.1,0,0,1,15.38,21ZM31.6,13.68l-.8-.8h0L24.62,6.7h0l-.79-.79,3.25-3.26,7.77,7.77Z"/></g></g></svg>