<svg xmlns="http://www.w3.org/2000/svg" viewBox="0 0 57.26 54.43"><defs><style>.cls-1{fill:#363443;}</style></defs><g id="レイヤー_2" data-name="レイヤー 2"><g id="レイヤー_2-2" data-name="レイヤー 2"><path class="cls-1" d="M56.3,24.18l-4.84-4.41V5.16a1.69,1.69,0,0,0-1.68-1.69H38.13a1.69,1.69,0,0,0-1.68,1.69v.93L30.61.77a2.92,2.92,0,0,0-4,0L1,24.18a2.94,2.94,0,0,0,2,5.11H7V52.74a1.69,1.69,0,0,0,1.69,1.69H22.81a1.69,1.69,0,0,0,1.68-1.69V38.5h8.28V52.74a1.69,1.69,0,0,0,1.68,1.69H48.53a1.69,1.69,0,0,0,1.69-1.69V29.29h4.1a2.94,2.94,0,0,0,2-5.11Zm-7.77,1.74a1.68,1.68,0,0,0-1.68,1.68V51.06H36.14V36.82a1.69,1.69,0,0,0-1.69-1.69H22.81a1.69,1.69,0,0,0-1.69,1.69V51.06H10.41V27.6a1.68,1.68,0,0,0-1.68-1.68H4.05L28.63,3.52,37,11.15a1.67,1.67,0,0,0,1.81.3,1.7,1.7,0,0,0,1-1.54V6.84h8.27V20.52a1.68,1.68,0,0,0,.55,1.24l4.57,4.16Z"/></g></g></svg>