<svg xmlns="http://www.w3.org/2000/svg" viewBox="0 0 57.1 49.63"><defs><style>.cls-1{fill:#363443;}</style></defs><g id="レイヤー_2" data-name="レイヤー 2"><g id="レイヤー_2-2" data-name="レイヤー 2"><path class="cls-1" d="M57.06,2A1.67,1.67,0,0,0,54.83.11L1.08,20.63a1.68,1.68,0,0,0,0,3.13l15.1,5.83V48a1.68,1.68,0,0,0,3.17.75l6.24-12.39L40.82,47.63a1.67,1.67,0,0,0,2.6-.86C57.65.12,57,2.15,57.06,2ZM43.79,7.91,17.61,26.56,6.34,22.2ZM19.52,29.3,42.34,13.05C22.7,33.77,23.73,32.68,23.64,32.79s.22-.49-4.12,8.13ZM40.91,43.53l-13.41-10L51.75,8Z"/></g></g></svg>