<svg xmlns="http://www.w3.org/2000/svg" viewBox="0 0 57.26 57.26"><defs><style>.cls-1{fill:#363443;}</style></defs><g id="レイヤー_2" data-name="レイヤー 2"><g id="レイヤー_2-2" data-name="レイヤー 2"><path class="cls-1" d="M48.88,8.39a28.62,28.62,0,0,0-40.49,0A28.63,28.63,0,0,0,28.63,57.26,28.63,28.63,0,0,0,48.88,8.39ZM14.35,49.48a14.5,14.5,0,0,1,28.56,0,25.23,25.23,0,0,1-28.56,0ZM19.53,25a9.1,9.1,0,1,1,9.1,9.1A9.12,9.12,0,0,1,19.53,25ZM45.81,47.15A17.87,17.87,0,0,0,35.42,35.48a12.46,12.46,0,1,0-13.58,0A17.87,17.87,0,0,0,11.45,47.15a25.28,25.28,0,1,1,34.36,0Z"/></g></g></svg>