<svg xmlns="http://www.w3.org/2000/svg" viewBox="0 0 33.83 30.1"><defs><style>.cls-1{fill:#363443;}</style></defs><g id="レイヤー_2" data-name="レイヤー 2"><g id="レイヤー_2-2" data-name="レイヤー 2"><path class="cls-1" d="M16.91,30.1a2,2,0,0,1-1.3-.5c-1.37-1.19-2.69-2.31-3.85-3.3h0a71.12,71.12,0,0,1-8.39-7.88C1.07,15.65,0,13,0,10.17A10.56,10.56,0,0,1,2.68,3,9.11,9.11,0,0,1,9.45,0a8.53,8.53,0,0,1,5.31,1.83,10.72,10.72,0,0,1,2.15,2.25,11.26,11.26,0,0,1,2.15-2.25A8.56,8.56,0,0,1,24.38,0a9.09,9.09,0,0,1,6.76,3,10.56,10.56,0,0,1,2.69,7.22c0,2.86-1.07,5.48-3.36,8.24a71.3,71.3,0,0,1-8.4,7.88c-1.16,1-2.48,2.12-3.85,3.31A2,2,0,0,1,16.91,30.1ZM9.45,2A7.13,7.13,0,0,0,4.14,4.29,8.62,8.62,0,0,0,2,10.17c0,2.4.9,4.55,2.9,7A69.9,69.9,0,0,0,13,24.78h0c1.17,1,2.49,2.12,3.87,3.32l3.88-3.33A69.9,69.9,0,0,0,29,17.14c2-2.42,2.9-4.57,2.9-7a8.62,8.62,0,0,0-2.16-5.88A7.13,7.13,0,0,0,24.38,2,6.59,6.59,0,0,0,20.27,3.4,9.53,9.53,0,0,0,18,6.05a1.25,1.25,0,0,1-2.15,0A9.42,9.42,0,0,0,13.55,3.4,6.59,6.59,0,0,0,9.45,2Z"/></g></g></svg>