<svg xmlns="http://www.w3.org/2000/svg" viewBox="0 0 35.34 31"><defs><style>.cls-1{fill:#363443;}</style></defs><g id="レイヤー_2" data-name="レイヤー 2"><g id="レイヤー_2-2" data-name="レイヤー 2"><path class="cls-1" d="M2.78,29.05A1.71,1.71,0,0,0,4.24,31a1.58,1.58,0,0,0,.91-.12l7-3a21.81,21.81,0,0,0,5.51.72c9.74,0,17.67-6.42,17.67-14.3S27.41,0,17.67,0,0,6.41,0,14.3A12.67,12.67,0,0,0,3.63,23ZM2.31,14.27C2.31,7.8,9.43,2,17.9,2S33,7.8,33,14.27,26.65,26.4,18.19,26.4a18.39,18.39,0,0,1-5.44-.58,1.82,1.82,0,0,0-1.24.07L5.65,28.54a.37.37,0,0,1-.55-.37l.53-4.9A2.1,2.1,0,0,0,5,21.38C2.75,19.27,2.31,17,2.31,14.27Z"/></g></g></svg>