<svg xmlns="http://www.w3.org/2000/svg" viewBox="0 0 57 57"><defs><style>.cls-1{fill:#363443;}</style></defs><g id="レイヤー_2" data-name="レイヤー 2"><g id="レイヤー_2-2" data-name="レイヤー 2"><path class="cls-1" d="M30.29,57H26.71a5.26,5.26,0,0,1-5.25-5.25V50.54a23.15,23.15,0,0,1-3.57-1.48l-.86.86a5.24,5.24,0,0,1-7.42,0L7.08,47.39a5.24,5.24,0,0,1,0-7.42l.86-.86a23.15,23.15,0,0,1-1.48-3.57H5.25A5.26,5.26,0,0,1,0,30.29V26.71a5.26,5.26,0,0,1,5.25-5.25H6.46a23.15,23.15,0,0,1,1.48-3.57L7.08,17a5.24,5.24,0,0,1,0-7.42L9.61,7.08a5.25,5.25,0,0,1,7.42,0l.86.86a23.15,23.15,0,0,1,3.57-1.48V5.25A5.26,5.26,0,0,1,26.71,0h3.58a5.26,5.26,0,0,1,5.25,5.25V6.46a23.15,23.15,0,0,1,3.57,1.48L40,7.08a5.24,5.24,0,0,1,7.42,0l2.53,2.53a5.24,5.24,0,0,1,0,7.42l-.86.86a23.15,23.15,0,0,1,1.48,3.57h1.21A5.26,5.26,0,0,1,57,26.71v3.58a5.26,5.26,0,0,1-5.25,5.25H50.54a23.15,23.15,0,0,1-1.48,3.57l.86.86a5.25,5.25,0,0,1,0,7.42l-2.53,2.53a5.25,5.25,0,0,1-7.42,0l-.86-.86a23.15,23.15,0,0,1-3.57,1.48v1.21A5.26,5.26,0,0,1,30.29,57ZM18.45,45.55a19.65,19.65,0,0,0,5.1,2.12,1.66,1.66,0,0,1,1.25,1.62v2.46a1.92,1.92,0,0,0,1.91,1.91h3.58a1.92,1.92,0,0,0,1.91-1.91V49.29a1.66,1.66,0,0,1,1.25-1.62,19.65,19.65,0,0,0,5.1-2.12,1.66,1.66,0,0,1,2,.26l1.75,1.74a1.9,1.9,0,0,0,2.69,0L47.56,45a1.92,1.92,0,0,0,0-2.7l-1.75-1.75a1.66,1.66,0,0,1-.26-2,19.31,19.31,0,0,0,2.12-5.1,1.67,1.67,0,0,1,1.62-1.25h2.46a1.92,1.92,0,0,0,1.91-1.91V26.71a1.92,1.92,0,0,0-1.91-1.91H49.29a1.67,1.67,0,0,1-1.62-1.25,19.31,19.31,0,0,0-2.12-5.1,1.66,1.66,0,0,1,.26-2l1.75-1.75a1.92,1.92,0,0,0,0-2.7L45,9.44a1.92,1.92,0,0,0-2.7,0l-1.75,1.75a1.66,1.66,0,0,1-2,.26,19.31,19.31,0,0,0-5.1-2.12A1.67,1.67,0,0,1,32.2,7.71V5.25a1.92,1.92,0,0,0-1.91-1.91H26.71A1.92,1.92,0,0,0,24.8,5.25V7.71a1.67,1.67,0,0,1-1.25,1.62,19.31,19.31,0,0,0-5.1,2.12,1.66,1.66,0,0,1-2-.26L14.67,9.44a1.92,1.92,0,0,0-2.7,0L9.44,12a1.92,1.92,0,0,0,0,2.7l1.75,1.75a1.66,1.66,0,0,1,.26,2,19.31,19.31,0,0,0-2.12,5.1A1.67,1.67,0,0,1,7.71,24.8H5.25a1.92,1.92,0,0,0-1.91,1.91v3.58A1.92,1.92,0,0,0,5.25,32.2H7.71a1.67,1.67,0,0,1,1.62,1.25,19.31,19.31,0,0,0,2.12,5.1,1.66,1.66,0,0,1-.26,2L9.44,42.33a1.91,1.91,0,0,0,0,2.69L12,47.55a1.91,1.91,0,0,0,2.7,0l1.75-1.75a1.67,1.67,0,0,1,2-.26Z"/><path class="cls-1" d="M28.5,40.9A12.4,12.4,0,1,1,40.9,28.5,12.41,12.41,0,0,1,28.5,40.9Zm0-21.46a9.06,9.06,0,1,0,9.06,9.06,9.06,9.06,0,0,0-9.06-9.06Z"/></g></g></svg>